Coordinates
version=1
nRows=7
nColumns=40
inDegrees=yes

Units are S.I. units (second, meters, Newtons, ...)
If the header above contains a line with 'inDegrees', this indicates whether rotational values are in degrees (yes) or radians (no).

endheader
time	pelvis_tilt	pelvis_list	pelvis_rotation	pelvis_tx	pelvis_ty	pelvis_tz	hip_flexion_r	hip_adduction_r	hip_rotation_r	knee_angle_r	knee_angle_r_beta	ankle_angle_r	subtalar_angle_r	mtp_angle_r	hip_flexion_l	hip_adduction_l	hip_rotation_l	knee_angle_l	knee_angle_l_beta	ankle_angle_l	subtalar_angle_l	mtp_angle_l	lumbar_extension	lumbar_bending	lumbar_rotation	arm_flex_r	arm_add_r	arm_rot_r	elbow_flex_r	pro_sup_r	wrist_flex_r	wrist_dev_r	arm_flex_l	arm_add_l	arm_rot_l	elbow_flex_l	pro_sup_l	wrist_flex_l	wrist_dev_l
      6.15000000	    -10.50153204	      0.52937661	      3.54306908	     -0.20276983	      0.93569996	     -0.84511250	     28.17231657	    -22.74816904	    -19.86193617	     41.91559415	      0.73156513	     17.62131299	      0.00000000	      0.00000000	     26.03203462	    -20.90874914	    -15.51032016	     38.63664191	      0.67433661	     16.52250731	      0.00000000	      0.00000000	    -10.01739203	     -2.74181839	      5.07466273	    -33.76506992	    -49.51226784	     34.44399746	     93.34171931	     87.82259267	      0.00000000	      0.00000000	    -28.52664270	    -53.21258485	     34.50115258	     99.12368163	     87.78543540	      0.00000000	      0.00000000
      6.15500000	    -11.93520930	      0.31747039	      3.18150315	     -0.20885462	      0.92233481	     -0.84504107	     32.21973268	    -23.16596536	    -18.36406570	     45.67142028	      0.79711666	     19.14344370	      0.00000000	      0.00000000	     29.21192927	    -21.74985541	    -15.01261129	     41.71581274	      0.72807828	     18.98616819	      0.00000000	      0.00000000	     -9.54615762	     -2.55549328	      5.45328958	    -32.88058232	    -49.47367285	     35.45553292	     92.51412357	     87.82038040	      0.00000000	      0.00000000	    -27.52107502	    -52.64700993	     35.23899872	     98.16163035	     87.78561871	      0.00000000	      0.00000000
      6.16000000	    -13.24133889	      0.08542731	      3.05469242	     -0.21531409	      0.90927990	     -0.84444918	     36.38838553	    -23.56492986	    -16.61066801	     49.77194461	      0.86868431	     19.90366112	      0.00000000	      0.00000000	     32.89580786	    -22.74615747	    -14.23052724	     45.46984338	      0.79359848	     20.56449889	      0.00000000	      0.00000000	     -9.27003446	     -2.40807688	      5.64081022	    -31.75516977	    -49.37132271	     36.81874857	     91.84136645	     87.83207144	      0.00000000	      0.00000000	    -26.33455948	    -52.43932264	     36.19503901	     97.32667752	     87.80613286	      0.00000000	      0.00000000
      6.16500000	    -13.91700512	     -0.25333677	      3.05121671	     -0.22082716	      0.89697682	     -0.84413853	     39.63205458	    -23.95635500	    -15.48893799	     53.66504020	      0.93663164	     20.55390832	      0.00000000	      0.00000000	     36.29619553	    -23.83048431	    -13.11070866	     49.58406322	      0.86540516	     21.73400793	      0.00000000	      0.00000000	     -9.69731433	     -2.07901046	      5.74240120	    -31.00414535	    -49.34833538	     37.77351769	     91.41822145	     87.77122568	      0.00000000	      0.00000000	    -25.44308490	    -52.21851859	     36.83338902	     96.72261299	     87.74790900	      0.00000000	      0.00000000
      6.17000000	    -14.73682390	     -0.83483860	      3.03755138	     -0.22612650	      0.88467980	     -0.84370564	     42.84683222	    -23.97261587	    -14.47091114	     57.32010119	      1.00042449	     20.80110328	      0.00000000	      0.00000000	     39.92977228	    -24.86528612	    -11.24192231	     53.38363230	      0.93172015	     22.21950602	      0.00000000	      0.00000000	     -9.83478119	     -1.47974310	      5.88876020	    -30.14680314	    -49.42911289	     39.06803148	     91.03905044	     87.79916440	      0.00000000	      0.00000000	    -24.40788778	    -52.07261896	     37.83800999	     96.07076221	     87.80646564	      0.00000000	      0.00000000
      6.17500000	    -15.42280242	     -1.31727499	      3.00374459	     -0.23080360	      0.87293555	     -0.84367249	     45.48911521	    -24.18086612	    -14.12854276	     60.33591519	      1.05306038	     21.24459796	      0.00000000	      0.00000000	     43.23659631	    -25.82047133	     -9.90919494	     57.00179955	      0.99486908	     22.71926634	      0.00000000	      0.00000000	    -10.08122155	     -0.97041349	      6.05579606	    -29.38981163	    -49.52722528	     40.16542458	     90.71754080	     87.79399169	      0.00000000	      0.00000000	    -23.36972639	    -51.85909117	     38.90131784	     95.36472142	     87.85359505	      0.00000000	      0.00000000
      6.18000000	    -16.17513389	     -1.62353337	      2.90840691	     -0.23519538	      0.86124147	     -0.84369977	     48.04639553	    -24.50528958	    -13.80681974	     63.07874287	      1.10093175	     21.88155437	      0.00000000	      0.00000000	     46.27359957	    -26.57913416	     -8.97500465	     60.20794384	      1.05082686	     23.47026008	      0.00000000	      0.00000000	    -10.27135623	     -0.65851253	      6.20015890	    -28.95692971	    -49.66306729	     41.06728209	     90.59467002	     87.82089997	      0.00000000	      0.00000000	    -22.62532974	    -51.72714810	     39.72613949	     94.91026956	     87.86508917	      0.00000000	      0.00000000
